<svg xmlns="http://www.w3.org/2000/svg" xmlns:xlink="http://www.w3.org/1999/xlink" version="1.1" width="769.8pt" height="179.16pt" viewBox="0 0 769.8 179.16">
<defs>
<clipPath id="clip_0">
<path transform="matrix(1,0,0,-1,0,179.16)" d="M.000011471 0H769.8V179.16H.000011471Z" fill-rule="evenodd"/>
</clipPath>
<clipPath id="clip_1">
<path transform="matrix(1,0,0,-1,0,179.16)" d="M.000011471 0H769.8V179.16H.000011471Z" fill-rule="evenodd"/>
</clipPath>
<clipPath id="clip_2">
<path transform="matrix(1,0,0,-1,0,179.16)" d="M.000011471 0H769.8V179.16H.000011471Z" fill-rule="evenodd"/>
</clipPath>
<clipPath id="clip_3">
<path transform="matrix(1,0,0,-1,0,179.16)" d="M.000011471 0H769.8V179.16H.000011471Z" fill-rule="evenodd"/>
</clipPath>
<clipPath id="clip_4">
<path transform="matrix(1,0,0,-1,0,179.16)" d="M.000011471 0H769.8V179.16H.000011471Z" fill-rule="evenodd"/>
</clipPath>
<clipPath id="clip_5">
<path transform="matrix(1,0,0,-1,0,179.16)" d="M.000011471 0H769.8V179.16H.000011471Z" fill-rule="evenodd"/>
</clipPath>
<clipPath id="clip_6">
<path transform="matrix(1,0,0,-1,0,179.16)" d="M.000011471 0H769.8V179.16H.000011471Z" fill-rule="evenodd"/>
</clipPath>
<clipPath id="clip_7">
<path transform="matrix(1,0,0,-1,0,179.16)" d="M.000011471 0H769.8V179.16H.000011471Z" fill-rule="evenodd"/>
</clipPath>
<clipPath id="clip_8">
<path transform="matrix(1,0,0,-1,0,179.16)" d="M.000011471 0H769.8V179.16H.000011471Z" fill-rule="evenodd"/>
</clipPath>
<clipPath id="clip_9">
<path transform="matrix(1,0,0,-1,0,179.16)" d="M.000011471 0H769.8V179.16H.000011471Z" fill-rule="evenodd"/>
</clipPath>
<clipPath id="clip_10">
<path transform="matrix(1,0,0,-1,0,179.16)" d="M.000011471 0H769.8V179.16H.000011471Z" fill-rule="evenodd"/>
</clipPath>
<clipPath id="clip_11">
<path transform="matrix(1,0,0,-1,0,179.16)" d="M.000011471 0H769.8V179.16H.000011471Z" fill-rule="evenodd"/>
</clipPath>
<clipPath id="clip_12">
<path transform="matrix(1,0,0,-1,0,179.16)" d="M.000011471 0H769.8V179.16H.000011471Z" fill-rule="evenodd"/>
</clipPath>
</defs>
<g>
<path transform="matrix(1,0,0,-1,0,179.16)" d="M11.081 47.576C113.06 46.961 165.2 47.182 208.16 47.241 251.12 47.299 284.89 47.195 319.27 47.163 353.65 47.131 388.63 47.171 423.3 47.308 457.97 47.444 492.33 47.678 526.37 47.58 560.41 47.481 594.13 47.051 611.08 49.37 628.04 51.69 628.24 56.759 628.29 61.694 628.34 66.63 628.24 71.433 628.28 76.1 628.33 80.767 628.52 85.3 628.74 89.93 628.95 94.559 629.18 99.287 629 104.92 628.82 110.55 628.22 117.09 628.18 132.72 525.71 132.61 474.12 132.26 431.04 132.1 387.97 131.94 353.41 131.96 319.2 132.05 284.99 132.14 251.13 132.3 216.96 132.37 182.8 132.45 148.32 132.42 113.94 132.22 79.559 132.02 45.266 131.64 27.958 129.24 10.651 126.84 10.329 122.42 10.12 117.79 9.9111 113.16 9.8152 108.33 9.9402 103.61 10.065 98.896 10.411 94.295 10.599 89.63 10.787 84.965 10.817 80.238 10.755 74.141 10.694 68.045 10.542 60.579 10.769 47.472Z" fill="#ffffff" fill-rule="evenodd"/>
<g clip-path="url(#clip_0)">
<text xml:space="preserve" transform="matrix(1 0 -0 1 0 179.16)" font-size="24.024" font-family="LucidaConsole"><tspan y="-82.464" x="14.832 29.318474 43.804948 58.29142 72.6818 87.168277 101.65475 116.14122 130.53159 145.01807 159.50455">           </tspan></text>
</g>
<g clip-path="url(#clip_1)">
<text xml:space="preserve" transform="matrix(1 0 -0 1 0 179.16)" font-size="24.024" font-family="LucidaConsole"><tspan y="-82.464" x="173.93 188.41648 202.90296 217.38944">T(n)</tspan></text>
</g>
<path transform="matrix(1,0,0,-1,0,179.16)" stroke-width="2.5" stroke-linecap="round" stroke-linejoin="round" fill="none" stroke="#000000" d="M10.345 129.42C46.185 129.72 63.747 129.33 78.594 129.12 93.441 128.91 105.57 128.9 117.62 128.99 129.66 129.08 141.61 129.27 153.32 129.4 165.03 129.53 176.48 129.58 187.97 129.69 199.46 129.8 210.99 129.95 216.97 131.28 222.95 132.61 223.38 135.11 223.7 137.54 224.02 139.97 224.24 142.33 224.35 144.74 224.47 147.15 224.5 149.61 224.32 152.09 224.14 154.58 223.75 157.08 223.58 160.24 223.4 163.39 223.43 167.21 223.03 174.23M223.99 174.82C187.9 174.66 169.99 174.73 155.29 174.71 140.59 174.68 129.1 174.57 117.22 174.52 105.34 174.47 93.064 174.48 81.195 174.55 69.326 174.63 57.864 174.76 46.252 174.82 34.64 174.88 22.877 174.87 17.064 173.63 11.25 172.4 11.385 169.93 11.513 167.36 11.641 164.79 11.762 162.1 11.678 159.52 11.594 156.95 11.304 154.48 11.172 152.06 11.039 149.64 11.063 147.27 10.864 143.97 10.665 140.68 10.243 136.46 10.417 129.9"/>
<g clip-path="url(#clip_2)">
<text xml:space="preserve" transform="matrix(1 0 -0 1 0 179.16)" font-size="24.024" font-family="MicrosoftYaHeiUI"><tspan y="-144.65" x="63.96">&#x03a9;</tspan></text>
</g>
<g clip-path="url(#clip_3)">
<text xml:space="preserve" transform="matrix(1 0 -0 1 0 179.16)" font-size="24.024" font-family="LucidaConsole"><tspan y="-144.65" x="83.568 98.054477 112.54095 127.02742 141.41779 155.90427">(h(n))</tspan></text>
</g>
<path transform="matrix(1,0,0,-1,0,179.16)" stroke-width="2.5" stroke-linecap="round" stroke-linejoin="round" fill="none" stroke="#000000" d="M11.162 4.7314C46.518 4.5634 64.002 4.6973 78.692 4.6085 93.382 4.5197 105.28 4.2084 117.07 4.0907 128.86 3.9729 140.54 4.0489 152.39 4.208 164.25 4.367 176.27 4.6092 188.32 4.66 200.38 4.7108 212.47 4.5703 218.18 5.6946 223.88 6.819 223.19 9.2083 223.05 11.861 222.91 14.513 223.32 17.429 223.58 20.23 223.84 23.032 223.95 25.719 224.03 28.115 224.11 30.511 224.16 32.614 224.08 35.478 223.99 38.341 223.77 41.963 223.44 50.106M223.38 49.908C188.08 49.788 170.23 50.091 155.27 50.139 140.3 50.187 128.21 49.98 116.6 49.975 104.99 49.969 93.859 50.165 82.193 50.117 70.526 50.07 58.323 49.78 46.235 49.695 34.147 49.611 22.175 49.732 16.21 48.518 10.246 47.304 10.289 44.756 10.314 42.413 10.339 40.07 10.347 37.932 10.288 35.392 10.23 32.853 10.105 29.912 10.2 27.077 10.295 24.242 10.61 21.514 10.636 18.537 10.663 15.56 10.402 12.334 10.764 4.1204"/>
<g clip-path="url(#clip_4)">
<text xml:space="preserve" transform="matrix(1 0 -0 1 0 179.16)" font-size="24.024" font-family="LucidaConsole"><tspan y="-20.064" x="66.528 81.01447 95.500949 109.98742 124.3778 138.86428 153.35074">O(g(n))</tspan></text>
</g>
<g clip-path="url(#clip_5)">
<text xml:space="preserve" transform="matrix(1 0 -0 1 0 179.16)" font-size="18" font-family="SimHei"><tspan y="-148.32" x="683.88 701.904 719.928 737.95199">&#x6700;&#x574f;&#x60c5;&#x51b5;</tspan></text>
</g>
<g clip-path="url(#clip_6)">
<text xml:space="preserve" transform="matrix(1 0 -0 1 0 179.16)" font-size="18.024" font-family="LucidaConsole"><tspan y="-126.62" x="698.21 709.0064 719.8749 730.74337">h(n)</tspan></text>
</g>
<g clip-path="url(#clip_7)">
<text xml:space="preserve" transform="matrix(1 0 -0 1 0 179.16)" font-size="18" font-family="SimHei"><tspan y="-41.952" x="686.14 704.14 722.14 740.14">&#x6700;&#x597d;&#x60c5;&#x51b5;</tspan></text>
</g>
<g clip-path="url(#clip_8)">
<text xml:space="preserve" transform="matrix(1 0 -0 1 0 179.16)" font-size="18.024" font-family="LucidaConsole"><tspan y="-20.256" x="700.44 711.2364 722.10488 732.9733">g(n)</tspan></text>
</g>
<path transform="matrix(1,0,0,-1,0,179.16)" stroke-width="2" stroke-linecap="round" stroke-dasharray="6,6" stroke-linejoin="round" fill="none" stroke="#000000" d="M11.594 127.95C122.58 130.45 178.67 129.75 225.38 129.49 272.08 129.24 309.4 129.43 346.43 129.45 383.45 129.47 420.2 129.32 466.67 129.2 511.94 129.07 566.44 128.96 674.45 130.21"/>
<path transform="matrix(1,0,0,-1,0,179.16)" d="M673.22 135.2C674.78 134.37 675.66 133.95 676.36 133.61 677.07 133.26 677.61 132.99 678.16 132.73 678.72 132.46 679.29 132.2 679.84 131.93 680.4 131.66 680.93 131.39 681.48 131.11 682.03 130.83 682.59 130.54 682.6 130.27 682.6 130.01 682.05 129.76 681.5 129.49 680.95 129.22 680.41 128.92 679.86 128.63 679.31 128.35 678.76 128.09 678.2 127.81 677.65 127.54 677.1 127.25 676.56 126.96 676.01 126.67 675.48 126.38 674.94 126.09 674.4 125.79 673.86 125.5 673.58 125.64 673.29 125.78 673.27 126.35 673.25 126.91 673.24 127.46 673.23 128 673.23 128.54 673.22 129.09 673.2 129.64 673.19 130.19 673.17 130.74 673.15 131.29 673.16 131.99 673.16 132.69 673.19 133.54 673.14 135.16Z" fill-rule="evenodd"/>
<path transform="matrix(1,0,0,-1,0,179.16)" stroke-width="2" stroke-linecap="round" stroke-dasharray="6,6" stroke-linejoin="round" fill="none" stroke="#000000" d="M11.869 51.37C121.86 48.861 177.49 49.821 224.03 49.975 270.57 50.129 308.01 49.477 345.35 49.416 382.7 49.355 419.95 49.886 466.58 50.266 513.21 50.647 569.22 50.878 680.66 50.935"/>
<path transform="matrix(1,0,0,-1,0,179.16)" d="M670.74 55.888C672.4 55.12 673.23 54.702 673.92 54.339 674.61 53.977 675.16 53.67 675.72 53.387 676.27 53.104 676.83 52.844 677.39 52.576 677.94 52.309 678.49 52.033 679.04 51.757 679.58 51.48 680.12 51.203 680.11 50.92 680.1 50.637 679.53 50.348 678.98 50.082 678.44 49.817 677.92 49.574 677.38 49.314 676.84 49.053 676.27 48.776 675.72 48.497 675.16 48.218 674.62 47.938 673.92 47.583 673.22 47.229 672.38 46.8 670.75 45.974 670.79 47.674 670.77 48.498 670.76 49.184 670.75 49.869 670.76 50.416 670.75 50.96 670.75 51.504 670.74 52.045 670.74 52.729 670.74 53.413 670.75 54.241 670.75 55.881Z" fill-rule="evenodd"/>
<path transform="matrix(1,0,0,-1,0,179.16)" stroke-width="2.5" stroke-linecap="round" stroke-linejoin="round" fill="none" stroke="#000000" d="M367.62 50.342C390 50.148 400.82 50.447 409.79 50.506 418.77 50.564 425.9 50.382 433.17 50.253 440.45 50.124 447.87 50.048 455.53 49.841 463.18 49.633 471.06 49.294 478.56 49.261 486.06 49.229 493.17 49.502 496.83 53.136 500.48 56.769 500.68 63.763 500.79 70.729 500.9 77.696 500.93 84.635 500.99 91.576 501.05 98.518 501.14 105.46 501.11 112.3 501.08 119.14 500.94 125.87 500.95 132.99 500.95 140.11 501.11 147.61 501.23 154.47 501.35 161.33 501.43 167.55 497.81 170.77 494.19 174 486.86 174.23 479.4 174.38 471.94 174.53 464.36 174.59 456.68 174.55 449 174.51 441.23 174.37 433.65 174.5 426.08 174.63 418.71 175.04 409.45 175.07 400.18 175.11 389.02 174.77 365.47 174.53M367.64 174.21C366.53 153.84 366.71 143.48 366.55 134.86 366.4 126.25 365.91 119.39 365.86 112.48 365.81 105.56 366.21 98.596 366.44 89.95 366.68 81.304 366.75 70.98 366.39 50.232"/>
<g clip-path="url(#clip_9)">
<text xml:space="preserve" transform="matrix(1 0 -0 1 0 179.16)" font-size="24" font-family="MicrosoftYaHeiUI"><tspan y="-104.93" x="380.78">&#x03a9;</tspan></text>
</g>
<g clip-path="url(#clip_10)">
<text xml:space="preserve" transform="matrix(1 0 -0 1 0 179.16)" font-size="24" font-family="LucidaConsole"><tspan y="-104.93" x="400.39 414.86204 429.33406 443.80607 458.27809 472.7501">(g(n))</tspan></text>
</g>
<path transform="matrix(1,0,0,-1,0,179.16)" stroke-width="2.5" stroke-linecap="round" stroke-linejoin="round" fill="none" stroke="#000000" d="M508.46 4.6758C530.8 4.5516 541.91 4.5785 551.33 4.6131 560.75 4.6476 568.49 4.6899 576.02 4.8536 583.55 5.0174 590.88 5.3026 600.11 5.2971 609.35 5.2916 620.49 4.9954 643.06 4.8748M643.11 4.4833C642.01 24.788 642.2 35.642 642.29 44.411 642.38 53.18 642.37 59.865 642.44 66.792 642.5 73.719 642.64 80.888 642.75 89.597 642.87 98.306 642.95 108.56 643.03 130.43M643.97 129.16C620.76 129.27 609.94 129.47 600.62 129.53 591.29 129.59 583.47 129.5 575.83 129.51 568.2 129.52 560.77 129.62 551.67 129.48 542.57 129.34 531.8 128.95 508.72 129.46M507.8 130.02C508.13 109.38 508.26 98.541 508.28 89.686 508.3 80.831 508.21 73.957 508.27 67.237 508.34 60.516 508.58 53.95 508.5 45.163 508.41 36.377 508.02 25.37 509.5 4.9872"/>
<g clip-path="url(#clip_11)">
<text xml:space="preserve" transform="matrix(1 0 -0 1 0 179.16)" font-size="24.024" font-family="LucidaConsole"><tspan y="-59.784" x="525.1">O</tspan></text>
</g>
<g clip-path="url(#clip_12)">
<text xml:space="preserve" transform="matrix(1 0 -0 1 0 179.16)" font-size="24.024" font-family="LucidaConsole"><tspan y="-59.784" x="539.57 554.05648 568.5429 583.02938 597.41976 611.9062">(h(n))</tspan></text>
</g>
</g>
</svg>
